<svg xmlns="http://www.w3.org/2000/svg" viewBox="0 0 1440 320"><path fill="#24e4dc" fill-opacity="0.4" d="M0,0L0,224L36.9,224L36.9,96L73.8,96L73.8,0L110.8,0L110.8,256L147.7,256L147.7,160L184.6,160L184.6,256L221.5,256L221.5,224L258.5,224L258.5,128L295.4,128L295.4,160L332.3,160L332.3,64L369.2,64L369.2,288L406.2,288L406.2,0L443.1,0L443.1,160L480,160L480,64L516.9,64L516.9,192L553.8,192L553.8,32L590.8,32L590.8,64L627.7,64L627.7,64L664.6,64L664.6,64L701.5,64L701.5,224L738.5,224L738.5,224L775.4,224L775.4,0L812.3,0L812.3,160L849.2,160L849.2,256L886.2,256L886.2,160L923.1,160L923.1,192L960,192L960,64L996.9,64L996.9,64L1033.8,64L1033.8,160L1070.8,160L1070.8,288L1107.7,288L1107.7,160L1144.6,160L1144.6,288L1181.5,288L1181.5,64L1218.5,64L1218.5,288L1255.4,288L1255.4,224L1292.3,224L1292.3,96L1329.2,96L1329.2,96L1366.2,96L1366.2,96L1403.1,96L1403.1,96L1440,96L1440,320L1403.1,320L1403.1,320L1366.2,320L1366.2,320L1329.2,320L1329.2,320L1292.3,320L1292.3,320L1255.4,320L1255.4,320L1218.5,320L1218.5,320L1181.5,320L1181.5,320L1144.6,320L1144.6,320L1107.7,320L1107.7,320L1070.8,320L1070.8,320L1033.8,320L1033.8,320L996.9,320L996.9,320L960,320L960,320L923.1,320L923.1,320L886.2,320L886.2,320L849.2,320L849.2,320L812.3,320L812.3,320L775.4,320L775.4,320L738.5,320L738.5,320L701.5,320L701.5,320L664.6,320L664.6,320L627.7,320L627.7,320L590.8,320L590.8,320L553.8,320L553.8,320L516.9,320L516.9,320L480,320L480,320L443.1,320L443.1,320L406.2,320L406.2,320L369.2,320L369.2,320L332.3,320L332.3,320L295.4,320L295.4,320L258.5,320L258.5,320L221.5,320L221.5,320L184.6,320L184.6,320L147.7,320L147.7,320L110.8,320L110.8,320L73.8,320L73.8,320L36.9,320L36.9,320L0,320L0,320Z"></path></svg>